<svg width="36" height="36" viewBox="0 0 36 36" fill="none" xmlns="http://www.w3.org/2000/svg">
<circle cx="18" cy="18" r="17.5" fill="#245AA2" stroke="white"/>
<path d="M6.95848 22.0221H4.12898C4.05804 22.0221 4 21.9625 4 21.8897V13.9779C4 12.8855 4.86256 12 5.92664 12H31.7437C31.8855 12 32 12.1175 32 12.2632V21.8897C32 21.9625 31.942 22.0221 31.871 22.0221H28.5288C28.4627 23.1261 27.5695 24 26.478 24C25.3865 24 24.4933 23.1261 24.4272 22.0221H11.0617C10.9956 23.1261 10.1024 24 9.01088 24C7.91778 24 7.02459 23.1261 6.95848 22.0221ZM7.85329 13.4516H12.3482C12.4192 13.4516 12.4772 13.5112 12.4772 13.584V18.331C12.4772 18.4039 12.4192 18.4634 12.3482 18.4634H7.85329C7.78235 18.4634 7.7243 18.4039 7.7243 18.331V13.5823C7.72592 13.5095 7.78235 13.4516 7.85329 13.4516ZM5.15599 13.4516H6.31197C6.38291 13.4516 6.44095 13.5112 6.44095 13.584V18.331C6.44095 18.4039 6.38291 18.4634 6.31197 18.4634H4V14.64C4 13.9829 4.51753 13.4516 5.15599 13.4516ZM14.0185 13.4516H18.5135C18.5844 13.4516 18.6425 13.5112 18.6425 13.584V18.331C18.6425 18.4039 18.5844 18.4634 18.5135 18.4634H14.0185C13.9476 18.4634 13.8896 18.4039 13.8896 18.331V13.5823C13.8912 13.5095 13.9476 13.4516 14.0185 13.4516ZM20.0564 13.4516H24.5514C24.6223 13.4516 24.6804 13.5112 24.6804 13.584V18.331C24.6804 18.4039 24.6223 18.4634 24.5514 18.4634H20.0564C19.9855 18.4634 19.9274 18.4039 19.9274 18.331V13.5823C19.9274 13.5095 19.9855 13.4516 20.0564 13.4516ZM26.2217 13.4516H30.7166C30.7876 13.4516 30.8456 13.5112 30.8456 13.584V18.331C30.8456 18.4039 30.7876 18.4634 30.7166 18.4634H26.2217C26.1507 18.4634 26.0927 18.4039 26.0927 18.331V13.5823C26.0927 13.5095 26.1507 13.4516 26.2217 13.4516ZM9.00927 24C7.87424 24 6.95365 23.0549 6.95365 21.8897C6.95365 20.7244 7.87424 19.7793 9.00927 19.7793C10.1443 19.7793 11.0649 20.7244 11.0649 21.8897C11.0649 23.0549 10.1443 24 9.00927 24ZM26.478 24C25.343 24 24.4224 23.0549 24.4224 21.8897C24.4224 20.7244 25.343 19.7793 26.478 19.7793C27.6131 19.7793 28.5337 20.7244 28.5337 21.8897C28.5337 23.0549 27.6131 24 26.478 24Z" stroke="white" stroke-miterlimit="10" stroke-linecap="round" stroke-linejoin="round"/>
</svg>
