<svg width="36" height="36" viewBox="0 0 36 36" fill="none" xmlns="http://www.w3.org/2000/svg">
<circle cx="18" cy="18" r="17.5" fill="#4AA466" stroke="white"/>
<path d="M21.4918 14.3391V15.8286M11.4888 27.6471C11.4057 28.5239 10.6658 29.21 9.76784 29.21C8.86988 29.21 8.13 28.5239 8.04689 27.6471C7.12774 27.6471 6.55409 27.6471 6.52965 27.6471C5.97718 27.4174 6.38135 24.7854 7.46998 24.2395C8.55861 23.6919 9.58368 23.6903 10.3122 23.3855C11.1351 22.8363 12.6605 21.7607 14.4564 21.4494C16.2524 21.1382 22.2675 21.3728 23.04 21.7607C23.8125 22.1486 24.1156 23.0498 24.4546 23.8989C24.7936 24.7463 25.0005 25.3982 25.0038 26.5862C25.0054 27.6944 24.6306 27.5689 23.1606 27.6308C23.0856 28.5158 22.3425 29.21 21.438 29.21C20.5401 29.21 19.8002 28.5239 19.7171 27.6471C17.3931 27.6471 14.168 27.6471 11.4888 27.6471ZM9.76784 29.21C8.81284 29.21 8.03874 28.4359 8.03874 27.4809C8.03874 26.5259 8.81284 25.7518 9.76784 25.7518C10.7228 25.7518 11.4969 26.5259 11.4969 27.4809C11.4969 28.4359 10.7228 29.21 9.76784 29.21ZM21.438 29.21C20.483 29.21 19.7089 28.4359 19.7089 27.4809C19.7089 26.5259 20.483 25.7518 21.438 25.7518C22.393 25.7518 23.1671 26.5259 23.1671 27.4809C23.1671 28.4359 22.393 29.21 21.438 29.21ZM11.2557 23.7913C12.2352 22.5544 13.8665 21.9367 16.153 21.9367C19.5818 21.9367 21.1773 21.9367 22.3833 22.1844C22.7027 22.5087 22.9227 23.0449 23.0416 23.7913H11.2557V23.7913ZM20.9524 22.2284L21.2229 23.718L20.9524 22.2284ZM17.0623 22.2284V23.718V22.2284ZM8.90736 23.6495C8.3549 23.4197 8.75906 20.7878 9.84769 20.2418C10.9363 19.6943 11.9614 19.6926 12.6899 19.3879C13.5129 18.8387 15.0382 17.7631 16.8342 17.4518C18.6301 17.1405 24.6453 17.3752 25.4177 17.7631C26.1902 18.151 26.4933 19.0522 26.8323 19.9012C27.1713 20.7487 27.3782 21.4006 27.3815 22.5886C27.3831 23.6968 27.0083 23.5713 25.5383 23.6332C25.4943 24.1498 25.2238 24.6013 24.8245 24.8881L8.90736 23.6495ZM10.4246 23.3089C10.5126 22.4354 11.2492 21.7542 12.1456 21.7542C12.403 21.7542 12.6475 21.8112 12.8675 21.9123L10.4246 23.3089ZM23.2437 21.8503C23.423 21.7868 23.6153 21.7526 23.8174 21.7526C24.7724 21.7526 25.5465 22.5267 25.5465 23.4817C25.5465 24.0749 25.2482 24.598 24.7919 24.9093L23.2437 21.8503ZM13.6335 19.792C14.6129 18.5551 16.2442 17.9375 18.5307 17.9375C21.9595 17.9375 23.555 17.9375 24.761 18.1852C25.0804 18.5095 25.3004 19.0457 25.4194 19.792H13.6335ZM23.3301 18.2308L23.6006 19.7203L23.3301 18.2308ZM19.44 18.2308V19.7203V18.2308ZM10.9608 19.7595C10.4083 19.5297 10.8125 16.8977 11.9011 16.3518C12.9897 15.8042 14.0148 15.8026 14.7433 15.4978C15.5663 14.9486 17.0917 13.873 18.8876 13.5618C20.6851 13.2505 26.6987 13.4852 27.4711 13.873C28.2436 14.2609 28.5467 15.1621 28.8857 16.0112C29.2247 16.8586 29.4316 17.5105 29.4349 18.6985C29.4365 19.8067 29.0617 19.6812 27.5917 19.7432C27.5591 20.1245 27.4027 20.47 27.1631 20.7405L10.9608 19.7595ZM12.4747 19.4547C12.5448 18.5633 13.2896 17.8625 14.199 17.8625C14.4744 17.8625 14.7351 17.9277 14.9665 18.0418L12.4747 19.4547ZM25.6997 17.8723C25.7551 17.8674 25.8121 17.8641 25.8692 17.8641C26.8241 17.8641 27.5983 18.6382 27.5983 19.5932C27.5983 20.0495 27.4222 20.4635 27.1338 20.7731L25.6997 17.8723ZM15.6852 15.902C16.6647 14.6651 18.296 14.0474 20.5824 14.0474C24.0113 14.0474 25.6068 14.0474 26.8127 14.2951C27.1322 14.6194 27.3522 15.1556 27.4711 15.902H15.6852ZM25.3835 14.3391L25.654 15.8286L25.3835 14.3391Z" stroke="white" stroke-miterlimit="10" stroke-linecap="round" stroke-linejoin="round"/>
<path d="M6.77573 9.89333H7.61828C8.04689 9.89333 8.39401 10.2404 8.39401 10.6691V14.683C8.39401 14.7384 8.35001 14.7824 8.2946 14.7824H6.09941C6.044 14.7824 6 14.7384 6 14.683V10.6691C6 10.2404 6.34712 9.89333 6.77573 9.89333Z" stroke="white" stroke-miterlimit="10" stroke-linecap="round" stroke-linejoin="round"/>
<path d="M7.21412 13.9382C7.35101 15.902 7.72747 17.0851 8.34023 17.4909C9.17137 18.0401 9.51687 17.5268 10.273 17.2677C10.6788 17.1275 11.0618 17.2677 11.1433 17.2677" stroke="white" stroke-miterlimit="10" stroke-linecap="round" stroke-linejoin="round"/>
<path d="M9.39138 10.1932C9.39138 9.64235 8.94485 9.19582 8.39401 9.19582M10.8385 9.94385C10.8385 8.67595 9.85584 7.64925 8.64335 7.64925L10.8385 9.94385ZM10.141 10.0433C10.141 9.10619 9.4256 8.34675 8.54394 8.34675L10.141 10.0433Z" stroke="white" stroke-miterlimit="10" stroke-linecap="round" stroke-linejoin="round"/>
<path d="M19.6992 11.3959C18.8093 11.2085 18.1412 10.4165 18.1412 9.46961C18.1412 8.3826 19.0196 7.50094 20.1049 7.50094C20.1359 7.50094 20.1669 7.50094 20.1962 7.50257C20.5629 6.62091 21.4299 6 22.4419 6C23.7848 6 24.8734 7.09189 24.8734 8.43801C24.9353 8.44127 24.9973 8.43801 25.0608 8.43801C25.8871 8.43801 26.5569 9.10944 26.5569 9.93895C26.5569 10.7668 25.8871 11.4399 25.0608 11.4399" stroke="white" stroke-miterlimit="10" stroke-linecap="round" stroke-linejoin="round"/>
<path d="M21.5065 10.9298V8.28482" stroke="white" stroke-miterlimit="10" stroke-linecap="round" stroke-linejoin="round"/>
<path d="M23.1899 8.28482V10.9298" stroke="white" stroke-miterlimit="10" stroke-linecap="round" stroke-linejoin="round"/>
<path d="M20.9068 10.3284L21.5065 10.9298L22.1078 10.3284" stroke="white" stroke-miterlimit="10" stroke-linecap="round" stroke-linejoin="round"/>
<path d="M22.5886 8.76558L23.1899 8.16423L23.7913 8.76558" stroke="white" stroke-miterlimit="10" stroke-linecap="round" stroke-linejoin="round"/>
</svg>
