<svg width="36" height="36" viewBox="0 0 36 36" fill="none" xmlns="http://www.w3.org/2000/svg">
<circle cx="18" cy="18" r="17.5" fill="#56A2F8" stroke="white"/>
<path d="M23.0516 10.1117V11.9041M10.5205 26.1192C10.4149 27.1739 9.49131 27.9982 8.36417 27.9982C7.23703 27.9982 6.31342 27.1739 6.20781 26.1192C5.05571 26.1192 4.33756 26.1192 4.30876 26.1192C3.61558 25.8426 4.12442 22.6765 5.48583 22.0182C6.84915 21.3599 8.13183 21.3562 9.04583 20.9911C10.077 20.331 11.9875 19.0365 14.238 18.6622C16.4884 18.2879 24.0232 18.57 24.991 19.0365C25.9587 19.503 26.3389 20.5873 26.7633 21.607C27.1876 22.6267 27.4469 23.4104 27.4507 24.8413C27.4526 26.1745 26.9841 26.0233 25.1407 26.097C25.0466 27.161 24.1154 27.9982 22.9824 27.9982C21.8572 27.9982 20.9317 27.1739 20.8261 26.1192C17.917 26.1192 13.877 26.1192 10.5205 26.1192ZM8.36417 28C7.1679 28 6.19821 27.0688 6.19821 25.92C6.19821 24.7712 7.1679 23.84 8.36417 23.84C9.56044 23.84 10.5301 24.7712 10.5301 25.92C10.5301 27.0688 9.56044 28 8.36417 28ZM22.9844 28C21.7881 28 20.8184 27.0688 20.8184 25.92C20.8184 24.7712 21.7881 23.84 22.9844 23.84C24.1806 23.84 25.1503 24.7712 25.1503 25.92C25.1503 27.0688 24.1806 28 22.9844 28ZM10.2287 21.4798C11.4537 19.9935 13.4987 19.2486 16.3617 19.2486C20.6571 19.2486 22.6541 19.2486 24.1653 19.5473C24.5647 19.9382 24.8412 20.5817 24.991 21.4798H10.2287V21.4798ZM22.3757 19.6008L22.7136 21.3931L22.3757 19.6008ZM17.5023 19.6008V21.3931V19.6008ZM7.28695 21.3101C6.59377 21.0335 7.10261 17.8674 8.46402 17.2091C9.82734 16.5509 11.11 16.5472 12.024 16.1821C13.0552 15.5219 14.9657 14.2275 17.2162 13.8531C19.4666 13.4788 27.0014 13.7609 27.9691 14.2275C28.9369 14.694 29.3171 15.7782 29.7415 16.7979C30.1658 17.8177 30.425 18.6013 30.4289 20.0322C30.4308 21.3654 29.9623 21.2142 28.1189 21.288C28.0632 21.9094 27.7234 22.4515 27.226 22.7963L7.28695 21.3101ZM9.18792 20.9008C9.29737 19.8497 10.221 19.031 11.3424 19.031C11.6649 19.031 11.9703 19.0992 12.2468 19.2209L9.18792 20.9008ZM25.2444 19.1471C25.4691 19.0715 25.711 19.031 25.9626 19.031C27.1588 19.031 28.1285 19.9622 28.1285 21.111C28.1285 21.8246 27.7541 22.4534 27.1838 22.8295L25.2444 19.1471ZM13.2068 16.6707C14.4319 15.1845 16.4769 14.4395 19.3399 14.4395C23.6353 14.4395 25.6323 14.4395 27.1435 14.7382C27.5429 15.1292 27.8194 15.7727 27.9691 16.6707H13.2068V16.6707ZM25.3539 14.7917L25.6918 16.584L25.3539 14.7917ZM20.4805 14.7917V16.584V14.7917ZM9.85806 16.6301C9.16488 16.3535 9.67373 13.1875 11.0351 12.5292C12.3985 11.8709 13.6811 11.8672 14.5951 11.5021C15.6263 10.842 17.5368 9.54749 19.7873 9.17317C22.0377 8.79884 29.5725 9.08097 30.5403 9.54749C31.508 10.014 31.8882 11.0983 32.3126 12.118C32.7369 13.1377 32.9962 13.9214 33 15.3523C33.0019 16.6855 32.5334 16.5343 30.69 16.608C30.6497 17.0672 30.4538 17.4839 30.1524 17.8084L9.85806 16.6301ZM11.7552 16.265C11.8435 15.1937 12.7767 14.351 13.9135 14.351C14.2591 14.351 14.5855 14.4285 14.8755 14.5667L11.7552 16.265ZM28.3225 14.3602C28.3916 14.3529 28.4626 14.351 28.5337 14.351C29.7299 14.351 30.6996 15.2822 30.6996 16.431C30.6996 16.9786 30.4788 17.4784 30.1178 17.849L28.3225 14.3602ZM15.778 11.9907C17.003 10.5045 19.048 9.75955 21.911 9.75955C26.2064 9.75955 28.2034 9.75955 29.7146 10.0583C30.114 10.4492 30.3905 11.0927 30.5403 11.9907H15.778ZM27.925 10.1117L28.2629 11.9041L27.925 10.1117Z" stroke="white" stroke-miterlimit="10" stroke-linecap="round" stroke-linejoin="round"/>
</svg>
