<svg width="36" height="36" viewBox="0 0 36 36" fill="none" xmlns="http://www.w3.org/2000/svg">
<circle cx="18" cy="18" r="17.5" fill="#7CD5FB" stroke="white"/>
<path d="M20.6999 13.4017V15.6623M12.0656 21.6269C11.9355 22.9578 10.7914 23.9981 9.39854 23.9981C8.00572 23.9981 6.86161 22.9578 6.73151 21.6269C5.30617 21.6269 4.41843 21.6269 4.38208 21.6269C3.52496 21.2782 4.1525 17.2837 5.83804 16.4533C7.52359 15.6229 9.11156 15.6192 10.2404 15.1581C11.5165 14.3239 13.8774 12.6931 16.6611 12.2189C19.4448 11.7446 28.7622 12.1045 29.958 12.6931C31.1537 13.2817 31.6244 14.6501 32.1505 15.9378C32.6766 17.2256 32.9962 18.2135 33 20.0186C33.0038 21.7 32.4222 21.5088 30.1435 21.6025C30.0268 22.9465 28.877 24 27.4746 24C26.0818 24 24.9377 22.9597 24.8076 21.6288C21.2146 21.6269 16.2172 21.6269 12.0656 21.6269ZM9.40045 23.9981C7.92153 23.9981 6.72195 22.8228 6.72195 21.3738C6.72195 19.9249 7.92153 18.7496 9.40045 18.7496C10.8794 18.7496 12.079 19.9249 12.079 21.3738C12.079 22.8228 10.8794 23.9981 9.40045 23.9981ZM27.4803 23.9981C26.0014 23.9981 24.8018 22.8228 24.8018 21.3738C24.8018 19.9249 26.0014 18.7496 27.4803 18.7496C28.9593 18.7496 30.1589 19.9249 30.1589 21.3738C30.1589 22.8228 28.9593 23.9981 27.4803 23.9981ZM11.7059 15.7729C13.2211 13.8965 15.7504 12.9593 19.2918 12.9593C24.6029 12.9593 27.0747 12.9593 28.942 13.3342C29.4376 13.8272 29.7762 14.6388 29.9618 15.7729H11.7059ZM26.7265 13.4017L27.1455 15.6623L26.7265 13.4017Z" stroke="white" stroke-miterlimit="10" stroke-linecap="round" stroke-linejoin="round"/>
</svg>
