<svg width="36" height="36" viewBox="0 0 36 36" fill="none" xmlns="http://www.w3.org/2000/svg">
<circle cx="18" cy="18" r="17.5" fill="#ED6C62" stroke="white"/>
<path d="M17.885 10C12.4252 10 8 13.5697 8 17.9723C8 20.0988 9.03457 22.0306 10.7177 23.4599C10.5473 24.018 9.71444 25.4786 8.46425 26.1585C7.11844 26.8888 12.7295 27.6208 15.0108 25.6003C15.9201 25.8229 16.8834 25.9429 17.8832 25.9429C19.1943 25.9429 20.4479 25.736 21.592 25.3621C25.2139 24.1797 27.7664 21.316 27.7664 17.9706C27.7699 13.568 23.3447 10 17.885 10Z" stroke="white" stroke-miterlimit="10" stroke-linecap="round" stroke-linejoin="round"/>
<path d="M17.1425 21.2899C17.1425 21.189 17.1616 21.0934 17.1981 21.0013C17.2347 20.9091 17.2868 20.8326 17.3546 20.7665C17.4207 20.7004 17.5007 20.65 17.5911 20.61C17.6815 20.5718 17.7806 20.5527 17.885 20.5527C17.9858 20.5527 18.0814 20.5718 18.1736 20.61C18.2657 20.65 18.344 20.7022 18.4101 20.7665C18.4761 20.8326 18.53 20.9091 18.57 21.0013C18.6083 21.0934 18.6292 21.189 18.6292 21.2899C18.6292 21.3942 18.61 21.4916 18.57 21.5803C18.53 21.6707 18.4779 21.7472 18.4101 21.8133C18.344 21.8793 18.264 21.9298 18.1736 21.9663C18.0832 22.0045 17.9858 22.0219 17.885 22.0219C17.7806 22.0219 17.6833 22.0028 17.5911 21.9663C17.5007 21.928 17.4207 21.8776 17.3546 21.8133C17.2886 21.7472 17.2364 21.6707 17.1981 21.5803C17.1599 21.4899 17.1425 21.3942 17.1425 21.2899ZM18.4674 14.8877V17.6837C18.4674 17.981 18.4535 18.2714 18.424 18.5565C18.3944 18.8417 18.3579 19.1442 18.311 19.4642H17.4903C17.445 19.1442 17.4068 18.8417 17.3772 18.5565C17.3477 18.2714 17.3338 17.981 17.3338 17.6837V14.8877H18.4674Z" fill="white"/>
</svg>
