<svg width="36" height="36" viewBox="0 0 36 36" fill="none" xmlns="http://www.w3.org/2000/svg">
<circle cx="18" cy="18" r="17.5" fill="#5FCF81" stroke="white"/>
<path d="M15.9118 26.4918C15.9118 26.5043 15.9118 26.5168 15.9118 26.5292C15.9118 27.612 15.0339 28.4899 13.9511 28.4899C12.8684 28.4899 11.9905 27.612 11.9905 26.5292C11.9905 26.5168 11.9905 26.5043 11.9905 26.4918C10.9523 26.4918 10.3058 26.4918 10.2791 26.4918C9.65227 26.2301 10.1117 23.249 11.344 22.6275C12.5763 22.0078 13.7392 22.0042 14.5655 21.6605C15.4986 21.039 17.2278 19.8192 19.265 19.4666C21.3023 19.1122 28.1192 19.3811 28.9953 19.8209C29.8715 20.2608 30.2152 21.283 30.5998 22.2446C30.9845 23.2063 31.2196 23.9453 31.2213 25.2916C31.2231 26.5453 30.8011 26.4046 29.1378 26.474C29.1129 27.5354 28.2456 28.3866 27.1789 28.3866C26.1193 28.3866 25.2557 27.5443 25.22 26.4936C22.5934 26.4918 18.9445 26.4918 15.9118 26.4918ZM13.9529 28.4899C12.8702 28.4899 11.9922 27.612 11.9922 26.5292C11.9922 25.4465 12.8702 24.5686 13.9529 24.5686C15.0356 24.5686 15.9136 25.4465 15.9136 26.5292C15.9136 27.612 15.0338 28.4899 13.9529 28.4899ZM27.1825 28.3848C26.0998 28.3848 25.2218 27.5069 25.2218 26.4242C25.2218 25.3414 26.0998 24.4635 27.1825 24.4635C28.2652 24.4635 29.1431 25.3414 29.1431 26.4242C29.1431 27.5087 28.2652 28.3848 27.1825 28.3848ZM15.6393 22.12C16.7488 20.7185 18.599 20.0186 21.1901 20.0186C25.0776 20.0186 26.8851 20.0186 28.2527 20.3C28.6142 20.6668 28.8636 21.2741 28.9989 22.1217H15.6393V22.12ZM26.6304 20.3481L26.9367 22.0363L26.6304 20.3481ZM22.2212 20.3481V22.0363V20.3481ZM4.95273 14.7688H5.98738C6.51271 14.7688 6.9401 15.1944 6.9401 15.7215V20.649C6.9401 20.7167 6.8849 20.7719 6.81723 20.7719H4.12288C4.0552 20.7719 4 20.7167 4 20.649V15.7215C4 15.1962 4.42561 14.7688 4.95273 14.7688Z" stroke="white" stroke-miterlimit="10" stroke-linecap="round" stroke-linejoin="round"/>
<path fill-rule="evenodd" clip-rule="evenodd" d="M5.46916 19.9136C5.80752 19.9136 6.08176 19.6393 6.08176 19.301C6.08176 18.9626 5.80752 18.6884 5.46916 18.6884C5.13081 18.6884 4.85657 18.9626 4.85657 19.301C4.85657 19.6393 5.13081 19.9136 5.46916 19.9136Z" fill="white"/>
<path d="M5.49053 19.7355C5.65971 22.1467 6.11915 23.5998 6.87243 24.0967C7.89283 24.7698 8.31666 24.1412 9.24446 23.8224C9.74309 23.6515 10.2132 23.8224 10.3112 23.8224" stroke="white" stroke-miterlimit="10" stroke-linecap="round" stroke-linejoin="round"/>
<path d="M6.55545 13.3566C9.29789 9.92504 15.2849 7.78273 21.272 9.38011" stroke="white" stroke-miterlimit="10" stroke-linecap="round" stroke-linejoin="round" stroke-dasharray="8 8"/>
<path d="M14.5815 8L16.2786 8.76753L15.041 10.1566" stroke="white" stroke-miterlimit="10" stroke-linecap="round" stroke-linejoin="round"/>
<path d="M9.30501 9.7256L8.58735 11.4423L10.4394 11.615" stroke="white" stroke-miterlimit="10" stroke-linecap="round" stroke-linejoin="round"/>
<path d="M27.8716 13.7217L23.5372 17.465L24.6733 13.5792L25.1595 11.9142H27.5511L28.0301 13.5792L29.1752 17.465L24.8407 13.7217M25.2343 8.03204H27.601L30.0923 9.13436H22.7429L25.2343 8.03204ZM25.1114 8.27601V11.9516V8.27601ZM22.7429 9.13436V9.86983V9.13436ZM30.0923 9.13436V9.86983V9.13436ZM22.7429 11.9516V12.6871V11.9516ZM30.0923 11.9516V12.6871V11.9516ZM27.5618 8.27601V11.9516V8.27601ZM25.1933 10.8493H27.6437L30.0941 11.9516H22.7447L25.1933 10.8493Z" stroke="white" stroke-miterlimit="10" stroke-linecap="round" stroke-linejoin="round"/>
</svg>
